HIERARCHY
ROOT Character1_Hips
{
	OFFSET 0.000000 86.858185 1.182688
	CHANNELS 6 Xposition Yposition Zposition Xrotation Yrotation Zrotation
	JOINT Character1_LeftUpLeg
	{
		OFFSET 7.276832 -6.057800 0.207883
		CHANNELS 6 Xposition Yposition Zposition Xrotation Yrotation Zrotation
		JOINT Character1_LeftLeg
		{
			OFFSET -1.823140 -35.110466 -1.568847
			CHANNELS 6 Xposition Yposition Zposition Xrotation Yrotation Zrotation
			JOINT Character1_LeftFoot
			{
				OFFSET -1.031196 -37.817070 -1.726818
				CHANNELS 6 Xposition Yposition Zposition Xrotation Yrotation Zrotation
				JOINT Character1_LeftToeBase
				{
					OFFSET 0.202457 -5.287532 8.122427
					CHANNELS 6 Xposition Yposition Zposition Xrotation Yrotation Zrotation
					End Site
					{
						OFFSET 0.009223 0.000047 9.693953
					}
				}
			}
		}
	}
	JOINT Character1_RightUpLeg
	{
		OFFSET -7.276832 -6.057770 0.207879
		CHANNELS 6 Xposition Yposition Zposition Xrotation Yrotation Zrotation
		JOINT Character1_RightLeg
		{
			OFFSET 1.823196 -35.109627 -1.587624
			CHANNELS 6 Xposition Yposition Zposition Xrotation Yrotation Zrotation
			JOINT Character1_RightFoot
			{
				OFFSET 1.031267 -37.817833 -1.710079
				CHANNELS 6 Xposition Yposition Zposition Xrotation Yrotation Zrotation
				JOINT Character1_RightToeBase
				{
					OFFSET -0.202449 -5.287759 8.122276
					CHANNELS 6 Xposition Yposition Zposition Xrotation Yrotation Zrotation
					End Site
					{
						OFFSET 0.001154 -0.000006 9.693956
					}
				}
			}
		}
	}
	JOINT Character1_Spine
	{
		OFFSET -0.000001 2.271347 0.818150
		CHANNELS 6 Xposition Yposition Zposition Xrotation Yrotation Zrotation
		JOINT Character1_Spine1
		{
			OFFSET -0.000001 9.085945 0.955446
			CHANNELS 6 Xposition Yposition Zposition Xrotation Yrotation Zrotation
			JOINT Character1_Spine2
			{
				OFFSET -0.000002 8.765564 -0.142866
				CHANNELS 6 Xposition Yposition Zposition Xrotation Yrotation Zrotation
				JOINT Character1_LeftShoulder
				{
					OFFSET 4.211487 11.612236 -3.873799
					CHANNELS 6 Xposition Yposition Zposition Xrotation Yrotation Zrotation
					JOINT Character1_LeftArm
					{
						OFFSET 5.543700 0.000031 -0.000005
						CHANNELS 6 Xposition Yposition Zposition Xrotation Yrotation Zrotation
						JOINT Character1_LeftForeArm
						{
							OFFSET 23.377409 -0.123474 0.033367
							CHANNELS 6 Xposition Yposition Zposition Xrotation Yrotation Zrotation
							JOINT Character1_LeftHand
							{
								OFFSET 16.247719 -0.118858 0.035829
								CHANNELS 6 Xposition Yposition Zposition Xrotation Yrotation Zrotation
								JOINT Character1_LeftHandThumb1
								{
									OFFSET 2.510399 -0.904045 2.091601
									CHANNELS 6 Xposition Yposition Zposition Xrotation Yrotation Zrotation
									JOINT Character1_LeftHandThumb2
									{
										OFFSET 2.570465 -1.130470 1.584520
										CHANNELS 6 Xposition Yposition Zposition Xrotation Yrotation Zrotation
										JOINT Character1_LeftHandThumb3
										{
											OFFSET 1.420841 -0.605858 0.842600
											CHANNELS 6 Xposition Yposition Zposition Xrotation Yrotation Zrotation
											JOINT Character1_LeftHandThumb4
											{
												OFFSET 2.153469 -0.757797 1.312965
												CHANNELS 6 Xposition Yposition Zposition Xrotation Yrotation Zrotation
												End Site
												{
													OFFSET 2.158772 -0.733734 1.317914
												}
											}
										}
									}
								}
								JOINT Character1_LeftHandIndex1
								{
									OFFSET 8.043888 0.989311 2.480770
									CHANNELS 6 Xposition Yposition Zposition Xrotation Yrotation Zrotation
									JOINT Character1_LeftHandIndex2
									{
										OFFSET 2.427021 0.011856 0.268371
										CHANNELS 6 Xposition Yposition Zposition Xrotation Yrotation Zrotation
										JOINT Character1_LeftHandIndex3
										{
											OFFSET 1.609932 0.007866 0.037315
											CHANNELS 6 Xposition Yposition Zposition Xrotation Yrotation Zrotation
											JOINT Character1_LeftHandIndex4
											{
												OFFSET 2.130016 0.049431 0.114431
												CHANNELS 6 Xposition Yposition Zposition Xrotation Yrotation Zrotation
												End Site
												{
													OFFSET 2.119099 0.211617 -0.131005
												}
											}
										}
									}
								}
								JOINT Character1_LeftHandMiddle1
								{
									OFFSET 8.038177 1.007423 0.439338
									CHANNELS 6 Xposition Yposition Zposition Xrotation Yrotation Zrotation
									JOINT Character1_LeftHandMiddle2
									{
										OFFSET 2.527046 -0.234444 -0.080977
										CHANNELS 6 Xposition Yposition Zposition Xrotation Yrotation Zrotation
										JOINT Character1_LeftHandMiddle3
										{
											OFFSET 1.931313 -0.179352 -0.117768
											CHANNELS 6 Xposition Yposition Zposition Xrotation Yrotation Zrotation
											JOINT Character1_LeftHandMiddle4
											{
												OFFSET 2.196999 0.041229 -0.161456
												CHANNELS 6 Xposition Yposition Zposition Xrotation Yrotation Zrotation
												End Site
												{
													OFFSET 2.197571 -0.071640 -0.141814
												}
											}
										}
									}
								}
								JOINT Character1_LeftHandRing1
								{
									OFFSET 7.662090 0.616508 -1.366725
									CHANNELS 6 Xposition Yposition Zposition Xrotation Yrotation Zrotation
									JOINT Character1_LeftHandRing2
									{
										OFFSET 2.249855 -0.592636 -0.461933
										CHANNELS 6 Xposition Yposition Zposition Xrotation Yrotation Zrotation
										JOINT Character1_LeftHandRing3
										{
											OFFSET 1.521790 -0.400856 -0.248318
											CHANNELS 6 Xposition Yposition Zposition Xrotation Yrotation Zrotation
											JOINT Character1_LeftHandRing4
											{
												OFFSET 2.446365 -0.396080 -0.528466
												CHANNELS 6 Xposition Yposition Zposition Xrotation Yrotation Zrotation
												End Site
												{
													OFFSET 2.437840 -0.527443 -0.446790
												}
											}
										}
									}
								}
								JOINT Character1_LeftHandPinky1
								{
									OFFSET 6.585136 -0.139000 -2.766160
									CHANNELS 6 Xposition Yposition Zposition Xrotation Yrotation Zrotation
									JOINT Character1_LeftHandPinky2
									{
										OFFSET 1.631428 -0.600632 -0.502815
										CHANNELS 6 Xposition Yposition Zposition Xrotation Yrotation Zrotation
										JOINT Character1_LeftHandPinky3
										{
											OFFSET 1.227242 -0.468956 -0.457904
											CHANNELS 6 Xposition Yposition Zposition Xrotation Yrotation Zrotation
											JOINT Character1_LeftHandPinky4
											{
												OFFSET 1.696033 -0.584229 -0.687828
												CHANNELS 6 Xposition Yposition Zposition Xrotation Yrotation Zrotation
												End Site
												{
													OFFSET 1.705387 -0.567787 -0.678411
												}
											}
										}
									}
								}
							}
						}
					}
				}
				JOINT Character1_RightShoulder
				{
					OFFSET -4.211487 11.612236 -3.873799
					CHANNELS 6 Xposition Yposition Zposition Xrotation Yrotation Zrotation
					JOINT Character1_RightArm
					{
						OFFSET -5.543744 0.000023 -0.000004
						CHANNELS 6 Xposition Yposition Zposition Xrotation Yrotation Zrotation
						JOINT Character1_RightForeArm
						{
							OFFSET -23.377581 -0.123566 0.033386
							CHANNELS 6 Xposition Yposition Zposition Xrotation Yrotation Zrotation
							JOINT Character1_RightHand
							{
								OFFSET -16.247574 -0.118851 0.036247
								CHANNELS 6 Xposition Yposition Zposition Xrotation Yrotation Zrotation
								JOINT Character1_RightHandThumb1
								{
									OFFSET -2.510384 -0.904091 2.091566
									CHANNELS 6 Xposition Yposition Zposition Xrotation Yrotation Zrotation
									JOINT Character1_RightHandThumb2
									{
										OFFSET -2.579426 -1.121681 1.537416
										CHANNELS 6 Xposition Yposition Zposition Xrotation Yrotation Zrotation
										JOINT Character1_RightHandThumb3
										{
											OFFSET -1.429546 -0.616760 0.819528
											CHANNELS 6 Xposition Yposition Zposition Xrotation Yrotation Zrotation
											JOINT Character1_RightHandThumb4
											{
												OFFSET -2.167622 -0.774658 1.279505
												CHANNELS 6 Xposition Yposition Zposition Xrotation Yrotation Zrotation
												End Site
												{
													OFFSET -2.137974 -0.606712 1.413074
												}
											}
										}
									}
								}
								JOINT Character1_RightHandIndex1
								{
									OFFSET -8.043800 0.988876 2.481294
									CHANNELS 6 Xposition Yposition Zposition Xrotation Yrotation Zrotation
									JOINT Character1_RightHandIndex2
									{
										OFFSET -2.426987 0.011948 0.268470
										CHANNELS 6 Xposition Yposition Zposition Xrotation Yrotation Zrotation
										JOINT Character1_RightHandIndex3
										{
											OFFSET -1.609989 0.007927 0.037374
											CHANNELS 6 Xposition Yposition Zposition Xrotation Yrotation Zrotation
											JOINT Character1_RightHandIndex4
											{
												OFFSET -2.129982 0.049034 0.114512
												CHANNELS 6 Xposition Yposition Zposition Xrotation Yrotation Zrotation
												End Site
												{
													OFFSET -2.123772 0.204735 0.006035
												}
											}
										}
									}
								}
								JOINT Character1_RightHandMiddle1
								{
									OFFSET -8.038174 1.006859 0.439860
									CHANNELS 6 Xposition Yposition Zposition Xrotation Yrotation Zrotation
									JOINT Character1_RightHandMiddle2
									{
										OFFSET -2.526997 -0.234062 -0.080875
										CHANNELS 6 Xposition Yposition Zposition Xrotation Yrotation Zrotation
										JOINT Character1_RightHandMiddle3
										{
											OFFSET -1.931465 -0.179070 -0.117694
											CHANNELS 6 Xposition Yposition Zposition Xrotation Yrotation Zrotation
											JOINT Character1_RightHandMiddle4
											{
												OFFSET -2.196987 0.042816 -0.161370
												CHANNELS 6 Xposition Yposition Zposition Xrotation Yrotation Zrotation
												End Site
												{
													OFFSET -2.184029 -0.187660 -0.222307
												}
											}
										}
									}
								}
								JOINT Character1_RightHandRing1
								{
									OFFSET -7.662136 0.615837 -1.366219
									CHANNELS 6 Xposition Yposition Zposition Xrotation Yrotation Zrotation
									JOINT Character1_RightHandRing2
									{
										OFFSET -2.249901 -0.592049 -0.461829
										CHANNELS 6 Xposition Yposition Zposition Xrotation Yrotation Zrotation
										JOINT Character1_RightHandRing3
										{
											OFFSET -1.521889 -0.400475 -0.248259
											CHANNELS 6 Xposition Yposition Zposition Xrotation Yrotation Zrotation
											JOINT Character1_RightHandRing4
											{
												OFFSET -2.446423 -0.395401 -0.528361
												CHANNELS 6 Xposition Yposition Zposition Xrotation Yrotation Zrotation
												End Site
												{
													OFFSET -2.430859 -0.503899 -0.507441
												}
											}
										}
									}
								}
								JOINT Character1_RightHandPinky1
								{
									OFFSET -6.585262 -0.139153 -2.765680
									CHANNELS 6 Xposition Yposition Zposition Xrotation Yrotation Zrotation
									JOINT Character1_RightHandPinky2
									{
										OFFSET -1.631413 -0.601036 -0.502742
										CHANNELS 6 Xposition Yposition Zposition Xrotation Yrotation Zrotation
										JOINT Character1_RightHandPinky3
										{
											OFFSET -1.227207 -0.469040 -0.457860
											CHANNELS 6 Xposition Yposition Zposition Xrotation Yrotation Zrotation
											JOINT Character1_RightHandPinky4
											{
												OFFSET -1.696110 -0.584045 -0.687750
												CHANNELS 6 Xposition Yposition Zposition Xrotation Yrotation Zrotation
												End Site
												{
													OFFSET -1.689350 -0.584435 -0.703875
												}
											}
										}
									}
								}
							}
						}
					}
				}
				JOINT Character1_Neck
				{
					OFFSET -0.000001 15.167763 -4.080687
					CHANNELS 6 Xposition Yposition Zposition Xrotation Yrotation Zrotation
					JOINT Character1_Head
					{
						OFFSET -0.000001 7.825302 -0.202157
						CHANNELS 6 Xposition Yposition Zposition Xrotation Yrotation Zrotation
						End Site
						{
							OFFSET -0.242856 15.320236 -2.107584
						}
					}
				}
				JOINT J_R_Mune_00
				{
					OFFSET -2.925001 2.684891 0.061887
					CHANNELS 6 Xposition Yposition Zposition Xrotation Yrotation Zrotation
					JOINT J_R_Mune_01
					{
						OFFSET -7.794388 2.801010 16.635391
						CHANNELS 6 Xposition Yposition Zposition Xrotation Yrotation Zrotation
						JOINT J_R_Mune_02
						{
							OFFSET 6.838630 -2.377007 -14.605499
							CHANNELS 6 Xposition Yposition Zposition Xrotation Yrotation Zrotation
							End Site
							{
								OFFSET -14.795670 -0.834061 -6.791919
							}
						}
					}
				}
				JOINT J_L_Mune_00
				{
					OFFSET 2.925019 2.684776 0.061883
					CHANNELS 6 Xposition Yposition Zposition Xrotation Yrotation Zrotation
					JOINT J_L_Mune_01
					{
						OFFSET 7.794374 2.801254 16.635433
						CHANNELS 6 Xposition Yposition Zposition Xrotation Yrotation Zrotation
						JOINT J_L_Mune_02
						{
							OFFSET -6.838619 -2.376648 -14.605538
							CHANNELS 3 Xrotation Yrotation Zrotation
							End Site
							{
								OFFSET 14.795649 -0.834076 -6.791907
							}
						}
					}
				}
			}
		}
	}
}
MOTION
Frames: 3
Frame Time: 0.033333
4.303267 86.192795 5.770218 -1.392382 7.683482 0.398927 7.276833 -6.057813 0.207881 4.470776 -12.879193 3.761949 -1.823141 -35.110474 -1.568847 7.818596 17.031335 0.085295 -1.031195 -37.817070 -1.726822 -9.350535 1.069828 -6.391806 0.202458 -5.287532 8.122425 0.000021 0.000217 -0.000825 -7.276833 -6.057797 0.207878 -0.458759 0.354234 -10.144678 1.823196 -35.109619 -1.587622 6.590313 -0.201040 0.569093 1.031263 -37.817825 -1.710081 -4.527152 -0.922949 9.388449 -0.202448 -5.287759 8.122276 0.000068 -0.000228 -0.000518 -0.000002 2.271329 0.818148 -1.608978 -0.000130 0.000241 -0.000001 9.085935 0.955445 -2.567522 -1.431265 0.076642 -0.000002 8.765557 -0.142869 5.784767 0.122857 1.214484 4.211488 11.612234 -3.873801 0.000161 -0.000303 -2.457657 5.543699 0.000028 -0.000006 19.963388 -7.094063 -69.865472 23.377419 -0.123478 0.033368 -15.027198 -19.157298 -1.853118 16.247738 -0.118859 0.035827 4.037178 -6.844784 14.942309 2.510403 -0.904055 2.091607 -2.573599 -1.715457 7.431978 2.570476 -1.130479 1.584519 4.641433 14.920085 2.293005 1.420843 -0.605854 0.842599 5.373710 23.291345 2.709272 2.153481 -0.757805 1.312965 -0.000581 0.001099 -0.006082 8.043892 0.989307 2.480772 3.066857 13.710547 1.532336 2.427025 0.011865 0.268371 0.423059 -0.045512 -18.415452 1.609948 0.007868 0.037313 1.369416 0.272009 -24.433161 2.130026 0.049436 0.114431 -0.003240 -0.004202 -0.001110 8.038177 1.007432 0.439339 -0.329451 1.965102 -5.254503 2.527045 -0.234439 -0.080974 -1.320236 0.340337 -23.304817 1.931316 -0.179334 -0.117769 -2.195045 0.974668 -33.186291 2.196990 0.041214 -0.161453 -0.003100 -0.003964 0.001012 7.662097 0.616496 -1.366724 -11.465031 -5.992420 -0.178436 2.249867 -0.592628 -0.461925 -0.738351 1.112401 -28.734076 1.521786 -0.400856 -0.248318 -6.831738 4.426409 -25.212506 2.446343 -0.396086 -0.528468 -0.003468 -0.001542 0.000894 6.585133 -0.138999 -2.766159 -6.188506 -18.307948 5.996339 1.631432 -0.600643 -0.502818 -3.494278 1.741923 -11.170118 1.227241 -0.468955 -0.457911 -10.862935 8.683023 -35.889209 1.696043 -0.584230 -0.687831 -0.000631 -0.000245 -0.000203 -4.211487 11.612226 -3.873802 0.000181 0.000199 -0.000130 -5.543741 0.000016 -0.000005 18.210766 -6.238505 69.461726 -23.377577 -0.123564 0.033388 -21.746834 19.878934 4.127226 -16.247591 -0.118844 0.036248 18.787228 -3.707115 -1.482471 -2.510382 -0.904102 2.091557 -7.055525 -0.039619 -13.731457 -2.579426 -1.121683 1.537418 6.117603 -19.520501 -2.673374 -1.429537 -0.616754 0.819537 7.326760 -30.564813 -3.014681 -2.167622 -0.774654 1.279516 0.009721 0.003664 -0.006332 -8.043801 0.988879 2.481291 2.009609 -9.925583 11.498694 -2.426985 0.011936 0.268469 0.065871 -0.000311 28.214139 -1.610002 0.007933 0.037376 0.000521 -0.000329 5.297937 -2.129979 0.049034 0.114512 -0.000982 -0.008825 0.004719 -8.038173 1.006870 0.439860 1.626936 0.054675 4.583800 -2.527001 -0.234058 -0.080878 -1.121619 -0.261115 37.373221 -1.931459 -0.179069 -0.117692 -1.771978 -1.184873 47.582619 -2.196989 0.042815 -0.161374 -0.000833 -0.002815 -0.003721 -7.662136 0.615840 -1.366219 -0.911343 14.831908 6.673620 -2.249889 -0.592037 -0.461829 -0.411897 -0.168568 26.029914 -1.521870 -0.400483 -0.248248 -4.277620 -1.878597 44.397217 -2.446441 -0.395395 -0.528371 0.004860 0.000982 0.007279 -6.585266 -0.139154 -2.765682 -20.673511 14.545279 1.425870 -1.631423 -0.601045 -0.502736 -4.387754 -2.335259 14.215232 -1.227216 -0.469048 -0.457858 -10.411706 -11.507466 39.806718 -1.696094 -0.584045 -0.687747 0.004210 0.003812 -0.005300 -0.000001 15.167746 -4.080690 1.614753 -3.107030 -2.833290 -0.000001 7.825335 -0.202155 1.616127 -3.053048 -2.876936 -2.925002 2.684891 0.061883 0.000001 -0.000002 0.000000 -7.794386 2.801002 16.635387 0.000000 -0.000001 -0.000000 6.838629 -2.377007 -14.605495 -0.000000 0.000000 0.000000 2.925018 2.684776 0.061877 0.000002 0.000004 -0.000001 7.794372 2.801247 16.635431 0.000000 -0.000005 0.000001 0.000001 0.000006 -0.000000 
4.303257 86.194252 5.770224 -1.392386 7.683480 0.398951 7.276834 -6.057810 0.207883 4.480593 -12.877626 3.763751 -1.823138 -35.110462 -1.568846 7.799474 17.031188 0.086187 -1.031194 -37.817074 -1.726820 -9.341663 1.068741 -6.389610 0.202458 -5.287532 8.122426 0.000017 0.000203 -0.000818 -7.276831 -6.057792 0.207879 -0.445307 0.353157 -10.144415 1.823196 -35.109619 -1.587624 6.564251 -0.203828 0.568880 1.031262 -37.817833 -1.710081 -4.514509 -0.921609 9.388502 -0.202449 -5.287759 8.122277 0.000070 -0.000257 -0.000510 -0.000001 2.271337 0.818150 -1.621231 -0.000207 0.000223 -0.000001 9.085943 0.955444 -2.558938 -1.431275 0.076826 -0.000003 8.765565 -0.142870 5.803035 0.123238 1.214464 4.211487 11.612251 -3.873796 0.000164 -0.000289 -2.457634 5.543691 0.000031 -0.000007 19.969154 -7.088471 -69.864837 23.377426 -0.123478 0.033370 -15.024196 -19.159464 -1.853725 16.247723 -0.118846 0.035828 4.027940 -6.808517 14.941365 2.510403 -0.904061 2.091609 -2.573632 -1.715418 7.431966 2.570466 -1.130488 1.584513 4.641424 14.920116 2.293001 1.420845 -0.605866 0.842597 5.373708 23.291322 2.709253 2.153474 -0.757814 1.312960 -0.000499 0.001103 -0.006147 8.043889 0.989304 2.480772 3.066871 13.710535 1.532316 2.427014 0.011855 0.268371 0.423087 -0.045488 -18.415503 1.609948 0.007867 0.037316 1.369390 0.272017 -24.433193 2.130013 0.049437 0.114431 -0.003245 -0.004230 -0.001054 8.038170 1.007433 0.439340 -0.329423 1.965105 -5.254511 2.527071 -0.234445 -0.080975 -1.320281 0.340351 -23.304739 1.931309 -0.179345 -0.117769 -2.195000 0.974645 -33.186349 2.196989 0.041217 -0.161454 -0.003132 -0.003968 0.001008 7.662088 0.616512 -1.366725 -11.465077 -5.992384 -0.178545 2.249859 -0.592654 -0.461935 -0.738290 1.112417 -28.734104 1.521786 -0.400863 -0.248319 -6.831754 4.426420 -25.212457 2.446360 -0.396077 -0.528475 -0.003441 -0.001562 0.000997 6.585140 -0.138999 -2.766156 -6.188499 -18.307941 5.996298 1.631433 -0.600645 -0.502822 -3.494375 1.741882 -11.170094 1.227229 -0.468955 -0.457896 -10.862893 8.683076 -35.889263 1.696051 -0.584238 -0.687835 -0.000614 -0.000233 -0.000166 -4.211488 11.612240 -3.873797 0.000151 0.000225 -0.000113 -5.543739 0.000012 -0.000005 18.211169 -6.238589 69.462204 -23.377575 -0.123557 0.033387 -21.745425 19.869606 4.123316 -16.247574 -0.118865 0.036241 18.787946 -3.707062 -1.482569 -2.510391 -0.904103 2.091561 -7.055540 -0.039590 -13.731528 -2.579423 -1.121670 1.537405 6.117651 -19.520484 -2.673247 -1.429550 -0.616765 0.819538 7.326779 -30.564793 -3.014699 -2.167619 -0.774652 1.279516 0.009684 0.003650 -0.006358 -8.043792 0.988879 2.481295 2.009667 -9.925575 11.498707 -2.426988 0.011949 0.268468 0.065805 -0.000294 28.214058 -1.610000 0.007926 0.037374 0.000555 -0.000330 5.297938 -2.129975 0.049032 0.114505 -0.001002 -0.008807 0.004774 -8.038188 1.006856 0.439861 1.626917 0.054682 4.583855 -2.527005 -0.234057 -0.080875 -1.121571 -0.261131 37.373272 -1.931483 -0.179061 -0.117690 -1.771970 -1.184817 47.582588 -2.196984 0.042825 -0.161373 -0.000890 -0.002826 -0.003731 -7.662127 0.615839 -1.366218 -0.911313 14.831925 6.673587 -2.249894 -0.592032 -0.461831 -0.411911 -0.168553 26.029947 -1.521890 -0.400472 -0.248256 -4.277626 -1.878579 44.397271 -2.446417 -0.395391 -0.528360 0.004785 0.000951 0.007257 -6.585268 -0.139142 -2.765687 -20.673509 14.545272 1.425804 -1.631421 -0.601032 -0.502748 -4.387732 -2.335228 14.215242 -1.227208 -0.469051 -0.457854 -10.411748 -11.507506 39.806763 -1.696090 -0.584053 -0.687751 0.004222 0.003814 -0.005336 -0.000002 15.167761 -4.080685 1.616819 -3.107216 -2.833082 -0.000000 7.825317 -0.202159 1.639874 -3.054263 -2.875681 -2.925002 2.684898 0.061888 -0.000000 -0.000000 0.000000 -7.794383 2.801017 16.635384 0.000001 0.000001 -0.000000 6.838630 -2.377007 -14.605497 -0.000000 0.000000 -0.000000 2.925018 2.684799 0.061883 0.000000 -0.000002 0.000000 7.794374 2.801255 16.635427 -0.000002 -0.000000 0.000000 -0.000000 0.000004 -0.000000 
4.303263 86.195900 5.770191 -1.392367 7.683480 0.398906 7.276834 -6.057818 0.207883 4.491009 -12.875228 3.768425 -1.823139 -35.110458 -1.568848 7.780561 17.029577 0.081778 -1.031196 -37.817066 -1.726821 -9.332902 1.067527 -6.384784 0.202457 -5.287532 8.122426 0.000014 0.000176 -0.000818 -7.276832 -6.057787 0.207879 -0.431856 0.352155 -10.144266 1.823196 -35.109627 -1.587623 6.538098 -0.206897 0.569055 1.031264 -37.817829 -1.710081 -4.501798 -0.920042 9.388384 -0.202447 -5.287759 8.122278 0.000092 -0.000292 -0.000506 -0.000001 2.271330 0.818149 -1.629550 -0.000163 0.000226 -0.000000 9.085949 0.955446 -2.553128 -1.431277 0.077011 -0.000003 8.765563 -0.142869 5.815570 0.123502 1.214433 4.211489 11.612250 -3.873807 0.000096 -0.000271 -2.457630 5.543695 0.000030 -0.000007 19.982758 -7.075483 -69.863758 23.377399 -0.123479 0.033370 -15.017177 -19.164903 -1.854351 16.247728 -0.118853 0.035829 4.019953 -6.777228 14.940243 2.510396 -0.904062 2.091606 -2.573634 -1.715437 7.431991 2.570460 -1.130486 1.584517 4.641463 14.920103 2.293061 1.420855 -0.605861 0.842594 5.373612 23.291304 2.709265 2.153471 -0.757807 1.312957 -0.000494 0.001099 -0.006134 8.043885 0.989309 2.480772 3.066817 13.710526 1.532341 2.427024 0.011875 0.268372 0.423095 -0.045520 -18.415433 1.609945 0.007863 0.037315 1.369387 0.272039 -24.433158 2.130034 0.049451 0.114430 -0.003236 -0.004236 -0.001081 8.038175 1.007415 0.439337 -0.329504 1.965098 -5.254521 2.527045 -0.234446 -0.080975 -1.320207 0.340358 -23.304896 1.931339 -0.179349 -0.117772 -2.195059 0.974653 -33.186253 2.197010 0.041223 -0.161452 -0.003102 -0.003962 0.001105 7.662080 0.616503 -1.366721 -11.465126 -5.992405 -0.178558 2.249861 -0.592636 -0.461925 -0.738277 1.112440 -28.733977 1.521789 -0.400865 -0.248315 -6.831728 4.426425 -25.212554 2.446363 -0.396086 -0.528466 -0.003440 -0.001571 0.000967 6.585143 -0.139008 -2.766165 -6.188495 -18.307938 5.996402 1.631434 -0.600644 -0.502821 -3.494357 1.741901 -11.170137 1.227247 -0.468946 -0.457916 -10.862918 8.683044 -35.889174 1.696041 -0.584228 -0.687828 -0.000634 -0.000214 -0.000271 -4.211487 11.612247 -3.873808 0.000121 0.000239 -0.000107 -5.543731 0.000019 -0.000004 18.211897 -6.238613 69.463454 -23.377590 -0.123559 0.033388 -21.742184 19.848298 4.114506 -16.247589 -0.118855 0.036245 18.788597 -3.707213 -1.482708 -2.510385 -0.904093 2.091560 -7.055523 -0.039558 -13.731445 -2.579430 -1.121677 1.537407 6.117677 -19.520498 -2.673218 -1.429554 -0.616754 0.819538 7.326649 -30.564854 -3.014816 -2.167625 -0.774646 1.279523 0.009719 0.003635 -0.006316 -8.043800 0.988888 2.481297 2.009621 -9.925532 11.498796 -2.427000 0.011964 0.268468 0.065874 -0.000296 28.214053 -1.609991 0.007925 0.037374 0.000523 -0.000304 5.298004 -2.129995 0.049036 0.114510 -0.000999 -0.008826 0.004712 -8.038160 1.006865 0.439862 1.626916 0.054699 4.583912 -2.527002 -0.234061 -0.080874 -1.121616 -0.261079 37.373238 -1.931448 -0.179061 -0.117692 -1.771946 -1.184827 47.582622 -2.196988 0.042829 -0.161373 -0.000882 -0.002816 -0.003711 -7.662129 0.615837 -1.366214 -0.911336 14.831983 6.673661 -2.249881 -0.592037 -0.461833 -0.411966 -0.168595 26.029989 -1.521892 -0.400483 -0.248251 -4.277607 -1.878609 44.397203 -2.446431 -0.395402 -0.528366 0.004840 0.000972 0.007310 -6.585253 -0.139137 -2.765686 -20.673600 14.545330 1.425903 -1.631415 -0.601041 -0.502747 -4.387700 -2.335280 14.215323 -1.227205 -0.469033 -0.457860 -10.411762 -11.507508 39.806732 -1.696116 -0.584061 -0.687749 0.004202 0.003801 -0.005302 -0.000001 15.167764 -4.080696 1.621103 -3.107685 -2.832481 -0.000001 7.825316 -0.202157 1.660720 -3.055268 -2.874715 -2.925001 2.684898 0.061879 -0.000002 -0.000002 0.000000 -7.794389 2.801010 16.635386 0.000001 0.000003 0.000001 6.838629 -2.377014 -14.605495 -0.000002 0.000003 -0.000000 2.925019 2.684799 0.061873 0.000001 -0.000002 -0.000000 7.794376 2.801255 16.635433 -0.000001 -0.000002 0.000001 0.000001 0.000002 -0.000000 
